<?xml version="1.0" encoding="utf-8"?>
<!-- Generator: Adobe Illustrator 22.1.0, SVG Export Plug-In . SVG Version: 6.00 Build 0)  -->
<svg version="1.1" xmlns="http://www.w3.org/2000/svg" xmlns:xlink="http://www.w3.org/1999/xlink" x="0px" y="0px"
	 viewBox="0 0 132 132" style="enable-background:new 0 0 132 132;" xml:space="preserve">
<style type="text/css">
	.st0{display:none;}
	.st1{display:inline;}
	.st2{fill:#F0692D;}
	.st3{fill:#70CBDA;}
	.st4{clip-path:url(#SVGID_2_);}
	.st5{fill:#231F20;}
	.st6{clip-path:url(#SVGID_4_);}
</style>
<g id="Rupay_ATM" class="st0">
	<g class="st1">
		<polygon class="st2" points="19.7,76.4 69.5,27.1 74.8,33.2 26.3,83.5 		"/>
		<g>
			<g>
				<g>
					<path d="M106.6,69.2H42.1c-2.8,0-5.1,2.3-5.1,5.1v37.3c0,2.8,2.3,5.1,5.1,5.1h64.4c2.8,0,5.1-2.3,5.1-5.1V74.3
						C111.7,71.5,109.4,69.2,106.6,69.2z M108.3,111.6c0,0.9-0.8,1.7-1.7,1.7H42.1c-0.9,0-1.7-0.8-1.7-1.7V74.3
						c0-0.9,0.8-1.7,1.7-1.7h64.4c0.9,0,1.7,0.8,1.7,1.7V111.6z"/>
				</g>
			</g>
			<g>
				<g>
					<path d="M47.2,94.7h6.6c0.9,0,1.7,0.8,1.7,1.7v0c0,0.9-0.8,1.7-1.7,1.7h-6.6c-0.9,0-1.7-0.8-1.7-1.7v0
						C45.5,95.4,46.3,94.7,47.2,94.7z"/>
				</g>
			</g>
			<g>
				<g>
					<path d="M60.1,94.7h6.6c0.9,0,1.7,0.8,1.7,1.7v0c0,0.9-0.8,1.7-1.7,1.7h-6.6c-0.9,0-1.7-0.8-1.7-1.7v0
						C58.4,95.4,59.1,94.7,60.1,94.7z"/>
				</g>
			</g>
			<g>
				<g>
					<path d="M72.9,94.7h6.6c0.9,0,1.7,0.8,1.7,1.7v0c0,0.9-0.8,1.7-1.7,1.7h-6.6c-0.9,0-1.7-0.8-1.7-1.7v0
						C71.2,95.4,72,94.7,72.9,94.7z"/>
				</g>
			</g>
			<g>
				<g>
					<rect x="38.8" y="106.5" width="71.2" height="3.4"/>
				</g>
			</g>
			<g>
				<g>
					<path d="M94.2,51.1L64.3,20.6c-0.3-0.3-0.8-0.5-1.2-0.5c-0.5,0-0.9,0.2-1.2,0.5L13.8,69.8c-0.6,0.7-0.6,1.7,0,2.4l23.6,25
						l2.5-2.3L17.4,70.9l45.8-46.7l27.5,28.1L73.1,69.7l2.4,2.4l18.7-18.7C94.8,52.8,94.8,51.8,94.2,51.1z"/>
				</g>
			</g>
			<g>
				<g>
					<rect x="9.9" y="49.7" transform="matrix(0.7071 -0.7071 0.7071 0.7071 -23.2781 46.6716)" width="69.5" height="3.4"/>
				</g>
			</g>
			<g>
				<g>
					<rect x="16.4" y="56.5" transform="matrix(0.6945 -0.7195 0.7195 0.6945 -26.4298 54.203)" width="68.3" height="3.4"/>
				</g>
			</g>
			<g>
				<g>
					<rect x="45.5" y="76" width="3.4" height="3.4"/>
				</g>
			</g>
			<g>
				<g>
					<rect x="45.5" y="81.1" width="3.4" height="3.4"/>
				</g>
			</g>
			<g>
				<g>
					<rect x="50.6" y="76" width="3.4" height="8.5"/>
				</g>
			</g>
			<g>
				<g>
					<rect x="55.7" y="76" width="3.4" height="3.4"/>
				</g>
			</g>
			<g>
				<g>
					<rect x="55.7" y="81.1" width="3.4" height="3.4"/>
				</g>
			</g>
			<g>
				<g>
					<path d="M69.3,60.1l4.4-4.4c0.7-0.7,1.7-0.7,2.4,0v0c0.7,0.7,0.7,1.7,0,2.4l-4.4,4.4c-0.7,0.7-1.7,0.7-2.4,0v0
						C68.6,61.8,68.6,60.7,69.3,60.1z"/>
				</g>
			</g>
			<g>
				<g>
					<path d="M77.8,51.6l1-1c0.7-0.7,1.7-0.7,2.4,0v0c0.7,0.7,0.7,1.7,0,2.4l-1,1c-0.7,0.7-1.7,0.7-2.4,0h0
						C77.1,53.3,77.1,52.2,77.8,51.6z"/>
				</g>
			</g>
		</g>
		<polygon class="st3" points="97.8,85.9 99.1,88.4 96.3,91 95.7,92.9 95.2,97.9 105.2,88.1 100.1,79.1 98.1,84.8 		"/>
		<polygon class="st2" points="94.3,79.1 99.1,88.4 89.5,97.1 		"/>
		<path d="M94.5,94.2l-0.8,3.1c0,0.1,0,0.2,0,0.3c0,0.4,0.2,0.8,0.6,1c0.2,0.1,0.4,0.2,0.6,0.2c0.3,0,0.6-0.1,0.8-0.3l9.9-9.3
			c0.4-0.4,0.5-0.9,0.3-1.4l-5-9.9c-0.2-0.5-0.7-0.7-1.2-0.7c-0.5,0.1-0.9,0.4-1,0.9l-1.2,4.4l-2.4-4.7c-0.2-0.5-0.7-0.7-1.2-0.7
			c-0.5,0.1-0.9,0.4-1,0.9l-5,19.1c0,0.1,0,0.2,0,0.3c0,0.4,0.2,0.8,0.6,1c0.2,0.1,0.4,0.2,0.6,0.2c0.3,0,0.6-0.1,0.8-0.3L94.5,94.2
			z M94.3,80.6l2.4,4.9v0l1.3,2.7l-7.6,7.1L94.3,80.6z M100.3,88.1c0-0.1,0-0.1-0.1-0.2c0-0.1,0-0.1-0.1-0.2l-0.9-1.8l-0.3-0.7
			l1.2-4.6l3.8,7.5l-7.6,7.1l0.9-3.5l2.7-2.5C100.2,88.9,100.3,88.5,100.3,88.1z"/>
	</g>
</g>
<g id="Bancassurance" class="st0">
	<g class="st1">
		<rect x="28" y="99.1" class="st3" width="8.7" height="15.7"/>
		<polygon class="st3" points="107.5,99.1 91.1,99.1 91.1,114.8 		"/>
		<rect x="51.5" y="59.3" class="st2" width="46.7" height="12"/>
		<g>
			<path d="M108.7,99.1V30.2c0-0.9-0.6-1.5-1.5-1.5H42.7c-0.9,0-1.5,0.6-1.5,1.5v85.1c0,0.9,0.6,1.5,1.5,1.5h48.4
				c0.4,0,0.7-0.1,1-0.4l16.1-16.1c0.1-0.2,0.1-0.3,0.3-0.4v-0.1C108.7,99.4,108.7,99.3,108.7,99.1L108.7,99.1z M44.2,31.6h61.6v66
				H91.1c-0.9,0-1.5,0.6-1.5,1.5v14.7H44.2V31.6z M92.6,111.7v-11.2h11.2l-5.6,5.6L92.6,111.7z M92.6,111.7"/>
			<path d="M57.4,52.2L57.4,52.2c0.8,0,1.5-0.7,1.5-1.5v-2.9c0-0.8,0.7-1.5,1.5-1.5h2.9c0.8,0,1.5-0.7,1.5-1.5v0
				c0-0.8-0.7-1.5-1.5-1.5h-2.9c-0.8,0-1.5-0.7-1.5-1.5V39c0-0.8-0.7-1.5-1.5-1.5h0c-0.8,0-1.5,0.7-1.5,1.5v2.9
				c0,0.8-0.7,1.5-1.5,1.5h-2.9c-0.8,0-1.5,0.7-1.5,1.5v0c0,0.8,0.7,1.5,1.5,1.5h2.9c0.8,0,1.5,0.7,1.5,1.5v2.9
				C55.9,51.5,56.6,52.2,57.4,52.2z M55.9,52.2"/>
			<path d="M92.6,40.4h5.9c0.8,0,1.5,0.7,1.5,1.5v0c0,0.8-0.7,1.5-1.5,1.5h-5.9c-0.8,0-1.5-0.7-1.5-1.5v0
				C91.1,41.1,91.8,40.4,92.6,40.4z"/>
			<path d="M83.8,46.3h14.7c0.8,0,1.5,0.7,1.5,1.5v0c0,0.8-0.7,1.5-1.5,1.5H83.8c-0.8,0-1.5-0.7-1.5-1.5v0
				C82.3,47,83,46.3,83.8,46.3z"/>
			<path d="M51.5,72.7h46.9c0.9,0,1.5-0.6,1.5-1.5V59.5c0-0.9-0.6-1.5-1.5-1.5H51.5c-0.9,0-1.5,0.6-1.5,1.5v11.7
				C50,72.1,50.6,72.7,51.5,72.7L51.5,72.7z M53,61h44v8.8H53V61z M53,61"/>
			<path d="M51.5,77.1L51.5,77.1c0.8,0,1.5,0.7,1.5,1.5v0c0,0.8-0.7,1.5-1.5,1.5h0c-0.8,0-1.5-0.7-1.5-1.5v0
				C50,77.8,50.7,77.1,51.5,77.1z"/>
			<path d="M57.4,77.1h11.7c0.8,0,1.5,0.7,1.5,1.5v0c0,0.8-0.7,1.5-1.5,1.5H57.4c-0.8,0-1.5-0.7-1.5-1.5v0
				C55.9,77.8,56.6,77.1,57.4,77.1z"/>
			<path d="M80.9,77.1L80.9,77.1c0.8,0,1.5,0.7,1.5,1.5v0c0,0.8-0.7,1.5-1.5,1.5h0c-0.8,0-1.5-0.7-1.5-1.5v0
				C79.4,77.8,80.1,77.1,80.9,77.1z"/>
			<path d="M86.7,77.1h11.7c0.8,0,1.5,0.7,1.5,1.5v0c0,0.8-0.7,1.5-1.5,1.5H86.7c-0.8,0-1.5-0.7-1.5-1.5v0
				C85.3,77.8,85.9,77.1,86.7,77.1z"/>
			<path d="M51.5,84.4L51.5,84.4c0.8,0,1.5,0.7,1.5,1.5v0c0,0.8-0.7,1.5-1.5,1.5h0c-0.8,0-1.5-0.7-1.5-1.5v0
				C50,85.1,50.7,84.4,51.5,84.4z"/>
			<path d="M57.4,84.4h11.7c0.8,0,1.5,0.7,1.5,1.5v0c0,0.8-0.7,1.5-1.5,1.5H57.4c-0.8,0-1.5-0.7-1.5-1.5v0
				C55.9,85.1,56.6,84.4,57.4,84.4z"/>
			<path d="M80.9,84.4L80.9,84.4c0.8,0,1.5,0.7,1.5,1.5v0c0,0.8-0.7,1.5-1.5,1.5h0c-0.8,0-1.5-0.7-1.5-1.5v0
				C79.4,85.1,80.1,84.4,80.9,84.4z"/>
			<path d="M86.7,84.4h11.7c0.8,0,1.5,0.7,1.5,1.5v0c0,0.8-0.7,1.5-1.5,1.5H86.7c-0.8,0-1.5-0.7-1.5-1.5v0
				C85.3,85.1,85.9,84.4,86.7,84.4z"/>
			<path d="M51.5,91.8L51.5,91.8c0.8,0,1.5,0.7,1.5,1.5l0,0c0,0.8-0.7,1.5-1.5,1.5h0c-0.8,0-1.5-0.7-1.5-1.5l0,0
				C50,92.4,50.7,91.8,51.5,91.8z"/>
			<path d="M57.4,91.8h11.7c0.8,0,1.5,0.7,1.5,1.5l0,0c0,0.8-0.7,1.5-1.5,1.5H57.4c-0.8,0-1.5-0.7-1.5-1.5l0,0
				C55.9,92.4,56.6,91.8,57.4,91.8z"/>
			<path d="M51.5,99.1L51.5,99.1c0.8,0,1.5,0.7,1.5,1.5v0c0,0.8-0.7,1.5-1.5,1.5h0c-0.8,0-1.5-0.7-1.5-1.5v0
				C50,99.8,50.7,99.1,51.5,99.1z"/>
			<path d="M57.4,99.1h11.7c0.8,0,1.5,0.7,1.5,1.5v0c0,0.8-0.7,1.5-1.5,1.5H57.4c-0.8,0-1.5-0.7-1.5-1.5v0
				C55.9,99.8,56.6,99.1,57.4,99.1z"/>
			<path d="M51.5,106.4L51.5,106.4c0.8,0,1.5,0.7,1.5,1.5v0c0,0.8-0.7,1.5-1.5,1.5h0c-0.8,0-1.5-0.7-1.5-1.5v0
				C50,107.1,50.7,106.4,51.5,106.4z"/>
			<path d="M57.4,106.4h11.7c0.8,0,1.5,0.7,1.5,1.5v0c0,0.8-0.7,1.5-1.5,1.5H57.4c-0.8,0-1.5-0.7-1.5-1.5v0
				C55.9,107.1,56.6,106.4,57.4,106.4z"/>
			<path d="M80.9,91.8L80.9,91.8c0.8,0,1.5,0.7,1.5,1.5l0,0c0,0.8-0.7,1.5-1.5,1.5h0c-0.8,0-1.5-0.7-1.5-1.5l0,0
				C79.4,92.4,80.1,91.8,80.9,91.8z"/>
			<path d="M86.7,91.8h11.7c0.8,0,1.5,0.7,1.5,1.5l0,0c0,0.8-0.7,1.5-1.5,1.5H86.7c-0.8,0-1.5-0.7-1.5-1.5l0,0
				C85.3,92.4,85.9,91.8,86.7,91.8z"/>
			<path d="M33.8,29.7c-0.2-0.6-0.7-1-1.3-1c-0.6,0-1.2,0.4-1.3,1l-4.3,12.8c-0.1,0.2-0.3,0.4-0.3,0.7v63.2h-2.9V63.9h-2.9v44
				c0,0.9,0.6,1.5,1.5,1.5h4.4v5.9c0,0.9,0.6,1.5,1.5,1.5h8.8c0.9,0,1.5-0.6,1.5-1.5V43.4c0-0.3-0.2-0.7-0.3-0.9L33.8,29.7z
				 M29.5,44.8h5.9v52.8h-5.9V44.8z M32.4,34.8l2.4,7h-4.7L32.4,34.8z M35.4,113.8h-5.9v-13.2h5.9V113.8z M35.4,113.8"/>
		</g>
	</g>
</g>
<g id="Franking_Docs" class="st0">
	<g class="st1">
		<polygon class="st3" points="77.4,22.7 77.4,46 100.4,46 		"/>
		<g>
			<path d="M92.4,103.6H40c-0.8,0-1.4,0.6-1.4,1.4c0,0.8,0.6,1.4,1.4,1.4h52.4c0.8,0,1.4-0.6,1.4-1.4
				C93.9,104.3,93.2,103.6,92.4,103.6L92.4,103.6z M92.4,103.6"/>
			<path d="M92.4,52.7H70.2c-0.8,0-1.4,0.6-1.4,1.4c0,0.8,0.6,1.4,1.4,1.4h22.2c0.8,0,1.4-0.6,1.4-1.4
				C93.9,53.3,93.2,52.7,92.4,52.7L92.4,52.7z M92.4,52.7"/>
			<path d="M92.4,70.2H70.2c-0.8,0-1.4,0.6-1.4,1.4c0,0.8,0.6,1.4,1.4,1.4h22.2c0.8,0,1.4-0.6,1.4-1.4
				C93.9,70.9,93.2,70.2,92.4,70.2L92.4,70.2z M92.4,70.2"/>
			<path d="M92.4,87.8H70.2c-0.8,0-1.4,0.6-1.4,1.4c0,0.8,0.6,1.4,1.4,1.4h22.2c0.8,0,1.4-0.6,1.4-1.4
				C93.9,88.4,93.2,87.8,92.4,87.8L92.4,87.8z M92.4,87.8"/>
			<path d="M103.3,46.5C103.3,46.5,103.3,46.4,103.3,46.5c0-0.1,0-0.2,0-0.2v0c0-0.1,0-0.1,0-0.2c0,0,0,0,0,0c0-0.1,0-0.1-0.1-0.2
				c0,0,0,0,0,0c0-0.1-0.1-0.1-0.1-0.2c0,0,0,0,0,0c0-0.1-0.1-0.1-0.1-0.1L78.2,20.9c0,0-0.1-0.1-0.1-0.1c0,0,0,0,0,0
				c0,0-0.1-0.1-0.2-0.1c0,0,0,0,0,0c-0.1,0-0.1,0-0.2-0.1c0,0,0,0,0,0c-0.1,0-0.1,0-0.2,0c0,0,0,0,0,0c-0.1,0-0.1,0-0.2,0
				c0,0,0,0-0.1,0c0,0,0,0,0,0H35.4c-3.4,0-6.2,2.8-6.2,6.2v64.5c0,0.8,0.6,1.4,1.4,1.4c0.8,0,1.4-0.6,1.4-1.4V26.6
				c0-1.8,1.5-3.3,3.3-3.3h40.4v20.2c0,2.4,2,4.4,4.4,4.4h20.2v7.9c0,0.8,0.6,1.4,1.4,1.4c0.8,0,1.4-0.6,1.4-1.4L103.3,46.5
				C103.3,46.5,103.3,46.5,103.3,46.5L103.3,46.5z M80.2,45.1c-0.9,0-1.6-0.7-1.6-1.6V25.3l19.8,19.8H80.2z M80.2,45.1"/>
			<path d="M101.9,63.3c-0.8,0-1.4,0.6-1.4,1.4v45.8c0,1.8-1.5,3.3-3.3,3.3H35.4c-1.8,0-3.3-1.5-3.3-3.3v-10.3
				c0-0.8-0.6-1.4-1.4-1.4c-0.8,0-1.4,0.6-1.4,1.4v10.3c0,3.4,2.8,6.2,6.2,6.2h61.7c3.4,0,6.2-2.8,6.2-6.2V64.8
				C103.3,64,102.6,63.3,101.9,63.3L101.9,63.3z M101.9,63.3"/>
			<g>
				<g>
					<path class="st2" d="M53.7,79.6c-0.4,0-0.8-0.2-1-0.6L43,67.6c-0.6-0.6-0.4-1.4,0.2-2c0.6-0.6,1.4-0.4,2,0.2l9.7,11.5
						c0.6,0.6,0.4,1.4-0.2,2C54.3,79.6,53.9,79.6,53.7,79.6z"/>
				</g>
				<g>
					<path class="st2" d="M59.8,55.5H43.2c-0.8,0-1.4-0.6-1.4-1.4c0-0.8,0.6-1.4,1.4-1.4h16.6c0.8,0,1.4,0.6,1.4,1.4
						C61.2,54.9,60.6,55.5,59.8,55.5z"/>
				</g>
				<g>
					<path class="st2" d="M59.8,60.9H43.2c-0.8,0-1.4-0.6-1.4-1.4s0.6-1.4,1.4-1.4h16.6c0.8,0,1.4,0.6,1.4,1.4S60.6,60.9,59.8,60.9z
						"/>
				</g>
				<g>
					<path class="st2" d="M44,68.2c-0.8,0-1.4-0.6-1.4-1.4s0.6-1.4,1.4-1.4c3.4,0,5.9-0.8,7.3-2.4c1.2-1.6,1-3.6,0.8-4.7
						c-0.6-2.8-4.2-2.8-4.2-2.8c-0.8,0-1.4-0.6-1.4-1.4c0-0.8,0.6-1.4,1.4-1.4c2,0,6.1,1,7.1,5.1c0.4,1.6,0.6,4.7-1.4,7.1
						C51.7,67,48.5,68.2,44,68.2z"/>
				</g>
			</g>
		</g>
	</g>
</g>
<g id="NEFT">
	<g>
		<path class="st3" d="M94.7,63.6L94.7,63.6c3.2,0,5.9-2.6,5.9-5.9v-3.2H88.9v3.2C88.9,61,91.5,63.6,94.7,63.6z"/>
		<path class="st2" d="M82.3,46L82.3,46c3.4,0,6.1,2.7,6.1,6.1v11.5H76.2V52.1C76.2,48.7,78.9,46,82.3,46z"/>
		<path class="st3" d="M76.2,84.5H52V52.8c0-3.9,3.2-7.1,7.1-7.1h17.1V84.5z"/>
		<path class="st3" d="M81.1,114.7H46.9c-4,0-7.3-3.3-7.3-7.3v-2.8h48.7v2.8C88.4,111.4,85.1,114.7,81.1,114.7z"/>
		<g>
			<path d="M101.4,51.8c-0.4-0.3-0.9-0.4-1.4-0.2L96,52.9l-4.1-1.4c-0.4-0.1-0.8-0.1-1.2,0.1l-0.8,0.4V33.3c0-4.2-3.4-7.6-7.6-7.6
				H45.9c-4.2,0-7.6,3.4-7.6,7.6v75.9c0,4.2,3.4,7.6,7.6,7.6h36.4c4.2,0,7.6-3.4,7.6-7.6v-44h4.6c4.2,0,7.6-3.4,7.6-7.6V53
				C102,52.5,101.8,52,101.4,51.8L101.4,51.8z M41.3,33.3c0-2.5,2-4.6,4.6-4.6h36.4c2.5,0,4.6,2,4.6,4.6v3H41.3V33.3z M86.9,109.1
				c0,2.5-2,4.6-4.6,4.6H45.9c-2.5,0-4.6-2-4.6-4.6v-3h45.5V109.1z M86.9,103.1H41.3V39.3h45.5v6.1c-1.3-1-2.8-1.6-4.6-1.6H58
				c-4.2,0-7.6,3.4-7.6,7.6v25.8c-2.5,0-4.6,2-4.6,4.6c0,2.5,2,4.6,4.6,4.6h27.3c2.5,0,4.6-2,4.6-4.6c0-2.5-2-4.6-4.6-4.6V65.1h9.1
				V103.1z M77.8,80.3c0.8,0,1.5,0.7,1.5,1.5c0,0.8-0.7,1.5-1.5,1.5V80.3z M76.2,46.9c0,0.1-0.1,0.1-0.1,0.2
				c-0.1,0.1-0.2,0.3-0.2,0.4c-0.2,0.3-0.3,0.5-0.4,0.8c-0.1,0.1-0.1,0.3-0.2,0.4C75.1,49,75,49.3,75,49.6c0,0.1-0.1,0.3-0.1,0.4
				c-0.1,0.5-0.1,0.9-0.1,1.4v31.9H53.5V51.5c0-2.5,2-4.6,4.6-4.6H76.2z M50.4,80.3v3c-0.8,0-1.5-0.7-1.5-1.5
				C48.9,81,49.6,80.3,50.4,80.3L50.4,80.3z M77.8,62.1V51.5c0-2.5,2-4.6,4.6-4.6s4.6,2,4.6,4.6v6.1c0,0.5,0.1,1,0.1,1.4
				c0,0.1,0.1,0.3,0.1,0.4c0.1,0.3,0.2,0.6,0.3,0.9c0.1,0.2,0.1,0.3,0.2,0.4c0.1,0.3,0.3,0.5,0.4,0.8c0.1,0.1,0.2,0.3,0.2,0.4
				c0,0.1,0.1,0.1,0.1,0.2H77.8z M99,57.5c0,2.5-2,4.6-4.6,4.6c-2.5,0-4.6-2-4.6-4.6v-2.1l1.6-0.8l4,1.3c0.3,0.1,0.6,0.1,1,0
				l2.6-0.9V57.5z M99,57.5"/>
			<path d="M58,75.7h6.1c0.8,0,1.5,0.7,1.5,1.5v0c0,0.8-0.7,1.5-1.5,1.5H58c-0.8,0-1.5-0.7-1.5-1.5v0C56.5,76.4,57.2,75.7,58,75.7z"
				/>
			<path d="M70.2,75.7L70.2,75.7c0.8,0,1.5,0.7,1.5,1.5v0c0,0.8-0.7,1.5-1.5,1.5h0c-0.8,0-1.5-0.7-1.5-1.5v0
				C68.6,76.4,69.3,75.7,70.2,75.7z"/>
			<path d="M58,69.7h6.1c0.8,0,1.5,0.7,1.5,1.5l0,0c0,0.8-0.7,1.5-1.5,1.5H58c-0.8,0-1.5-0.7-1.5-1.5l0,0
				C56.5,70.4,57.2,69.7,58,69.7z"/>
			<path d="M70.2,69.7L70.2,69.7c0.8,0,1.5,0.7,1.5,1.5l0,0c0,0.8-0.7,1.5-1.5,1.5h0c-0.8,0-1.5-0.7-1.5-1.5l0,0
				C68.6,70.4,69.3,69.7,70.2,69.7z"/>
			<path d="M58,63.6h6.1c0.8,0,1.5,0.7,1.5,1.5v0c0,0.8-0.7,1.5-1.5,1.5H58c-0.8,0-1.5-0.7-1.5-1.5v0C56.5,64.3,57.2,63.6,58,63.6z"
				/>
			<path d="M70.2,63.6L70.2,63.6c0.8,0,1.5,0.7,1.5,1.5v0c0,0.8-0.7,1.5-1.5,1.5h0c-0.8,0-1.5-0.7-1.5-1.5v0
				C68.6,64.3,69.3,63.6,70.2,63.6z"/>
			<path d="M58,57.5h6.1c0.8,0,1.5,0.7,1.5,1.5v0c0,0.8-0.7,1.5-1.5,1.5H58c-0.8,0-1.5-0.7-1.5-1.5v0C56.5,58.2,57.2,57.5,58,57.5z"
				/>
			<path d="M70.2,57.5L70.2,57.5c0.8,0,1.5,0.7,1.5,1.5v0c0,0.8-0.7,1.5-1.5,1.5h0c-0.8,0-1.5-0.7-1.5-1.5v0
				C68.6,58.2,69.3,57.5,70.2,57.5z"/>
			<path d="M58,51.5h6.1c0.8,0,1.5,0.7,1.5,1.5v0c0,0.8-0.7,1.5-1.5,1.5H58c-0.8,0-1.5-0.7-1.5-1.5v0C56.5,52.2,57.2,51.5,58,51.5z"
				/>
			<path d="M70.2,51.5L70.2,51.5c0.8,0,1.5,0.7,1.5,1.5v0c0,0.8-0.7,1.5-1.5,1.5h0c-0.8,0-1.5-0.7-1.5-1.5v0
				C68.6,52.2,69.3,51.5,70.2,51.5z"/>
		</g>
	</g>
</g>
<g id="RTGS" class="st0">
	<g class="st1">
		<rect x="32" y="38.8" class="st2" width="77.2" height="5.5"/>
		<rect x="32" y="44.7" class="st3" width="77.5" height="6.5"/>
		<circle class="st2" cx="70.8" cy="72" r="8"/>
		<path class="st3" d="M16.8,74h29.8C53.5,74,59,79.5,59,86.3v0c0,6.8-5.5,12.3-12.3,12.3h-7.5L16.8,74z"/>
		<g>
			<g>
				<defs>
					<rect id="SVGID_1_" x="14.7" y="20.6" width="96.2" height="96.2"/>
				</defs>
				<clipPath id="SVGID_2_">
					<use xlink:href="#SVGID_1_"  style="overflow:visible;"/>
				</clipPath>
				<path class="st4" d="M70.8,62.4c-5.3,0-9.6,4.3-9.6,9.6c0,5.3,4.3,9.6,9.6,9.6s9.6-4.3,9.6-9.6C80.4,66.7,76.1,62.4,70.8,62.4
					L70.8,62.4z M70.8,78.4c-3.5,0-6.4-2.9-6.4-6.4s2.9-6.4,6.4-6.4c3.5,0,6.4,2.9,6.4,6.4S74.3,78.4,70.8,78.4L70.8,78.4z
					 M70.8,78.4"/>
			</g>
			<path d="M99.8,104.4"/>
			<path d="M109.3,36.7H32.3c-0.9,0-1.6,0.7-1.6,1.6V72H16.3c-0.9,0-1.6,0.7-1.6,1.6c0,3.9,2.8,7.2,6.5,7.9c0.6,3.2,3.2,5.8,6.4,6.4
				c0.6,3.2,3.2,5.8,6.4,6.4c0.7,3.7,4,6.5,7.9,6.5h4.8c5,0,9.4-2.5,12-6.4h50.5c0.9,0,1.6-0.7,1.6-1.6V38.3
				C110.9,37.5,110.2,36.7,109.3,36.7L109.3,36.7z M46.8,97.6H42c-2.1,0-3.9-1.3-4.5-3.2h7.7c0.9,0,1.6-0.7,1.6-1.6v0
				c0-0.9-0.7-1.6-1.6-1.6h-9.6c-2.1,0-3.8-1.3-4.5-3.2h7.7c0.9,0,1.6-0.7,1.6-1.6v0c0-0.9-0.7-1.6-1.6-1.6h-9.6
				c-2.1,0-3.9-1.3-4.5-3.2h7.7c0.9,0,1.6-0.7,1.6-1.6v0c0-0.9-0.7-1.6-1.6-1.6h-9.6c-2.1,0-3.9-1.3-4.5-3.2l28.2,0
				c6,0,11.2,4.5,11.6,10.4C58.4,92.2,53.2,97.6,46.8,97.6L46.8,97.6z M46.8,72h-6.4v-6.6c3.1-0.6,5.6-3.1,6.2-6.2l48.4,0
				c0.6,3.1,3.1,5.6,6.3,6.2v13.1c-3.1,0.6-5.6,3.1-6.2,6.2H61.1v0C60.3,77.6,54.2,72,46.8,72L46.8,72z M107.7,91.2H60.3
				c0.4-1,0.6-2.1,0.7-3.2l35.4,0c0.9,0,1.6-0.7,1.6-1.6c0-2.6,2.2-4.8,4.8-4.8c0.4,0,0.8-0.2,1.1-0.5c0.3-0.3,0.5-0.7,0.5-1.1l0-16
				c0-0.9-0.7-1.6-1.6-1.6c-2.7,0-4.8-2.2-4.8-4.8c0-0.9-0.7-1.6-1.6-1.6H45.2c-0.9,0-1.6,0.7-1.6,1.6c0,2.7-2.2,4.8-4.8,4.8
				c-0.9,0-1.6,0.7-1.6,1.6v8h-3.2V52.8h73.7V91.2z M107.7,49.6H33.9v-3.2h73.7V49.6z M107.7,43.1H33.9v-3.2h73.7V43.1z M107.7,43.1
				"/>
			<path d="M88.4,97.6h14.4c0.9,0,1.6,0.7,1.6,1.6v0c0,0.9-0.7,1.6-1.6,1.6H88.4c-0.9,0-1.6-0.7-1.6-1.6v0
				C86.8,98.4,87.6,97.6,88.4,97.6z"/>
			<path d="M82,97.6L82,97.6c0.9,0,1.6,0.7,1.6,1.6v0c0,0.9-0.7,1.6-1.6,1.6l0,0c-0.9,0-1.6-0.7-1.6-1.6v0
				C80.4,98.4,81.1,97.6,82,97.6z"/>
			<path d="M75.6,97.6L75.6,97.6c0.9,0,1.6,0.7,1.6,1.6v0c0,0.9-0.7,1.6-1.6,1.6l0,0c-0.9,0-1.6-0.7-1.6-1.6v0
				C74,98.4,74.7,97.6,75.6,97.6z"/>
			<path d="M69.2,97.6L69.2,97.6c0.9,0,1.6,0.7,1.6,1.6v0c0,0.9-0.7,1.6-1.6,1.6l0,0c-0.9,0-1.6-0.7-1.6-1.6v0
				C67.6,98.4,68.3,97.6,69.2,97.6z"/>
		</g>
	</g>
</g>
<g id="ABB" class="st0">
	<g class="st1">
		<rect x="18.2" y="108.9" class="st3" width="52.2" height="5.7"/>
		<rect x="60.7" y="59.3" class="st2" width="52.8" height="6.6"/>
		<g>
			<path d="M70.7,85.6c0.9,0,1.6-0.7,1.6-1.6v-6.6c0-0.7-0.5-1.4-1.2-1.6L45,67.6c-0.3-0.1-0.7-0.1-1,0l-26.2,8.2
				c-0.7,0.2-1.1,0.8-1.1,1.6v6.6c0,0.9,0.7,1.6,1.6,1.6h1.6v21.3h-1.6c-0.9,0-1.6,0.7-1.6,1.6v6.6c0,0.9,0.7,1.6,1.6,1.6h52.5
				c0.9,0,1.6-0.7,1.6-1.6v-6.6c0-0.9-0.7-1.6-1.6-1.6h-1.6V85.6H70.7z M69.1,113.4H19.9v-3.3h49.2V113.4z M23.2,106.9V85.6h3.3
				v21.3H23.2z M29.7,106.9V85.6H33v21.3H29.7z M36.3,106.9V85.6h3.3v21.3H36.3z M42.8,106.9V85.6h3.3v21.3H42.8z M49.4,106.9V85.6
				h3.3v21.3H49.4z M56,106.9V85.6h3.3v21.3H56z M62.5,106.9V85.6h3.3v21.3H62.5z M67.4,82.3H19.9v-3.7l24.6-7.7l24.6,7.7v3.7H67.4z
				 M67.4,82.3"/>
			<path d="M113.4,36.4c0.9,0,1.6-0.7,1.6-1.6v-6.6c0-0.7-0.5-1.4-1.2-1.6l-26.2-8.2c-0.3-0.1-0.7-0.1-1,0l-26.2,8.2
				c-0.7,0.2-1.2,0.8-1.2,1.6v6.6c0,0.9,0.7,1.6,1.6,1.6h1.6v21.3h-1.6c-0.9,0-1.6,0.7-1.6,1.6v6.6c0,0.9,0.7,1.6,1.6,1.6h52.5
				c0.9,0,1.6-0.7,1.6-1.6v-6.6c0-0.9-0.7-1.6-1.6-1.6h-1.6V36.4H113.4z M111.7,64.2H62.5V61h49.2V64.2z M65.8,57.7V36.4h3.3v21.3
				H65.8z M72.4,57.7V36.4h3.3v21.3H72.4z M78.9,57.7V36.4h3.3v21.3H78.9z M85.5,57.7V36.4h3.3v21.3H85.5z M92,57.7V36.4h3.3v21.3
				H92z M98.6,57.7V36.4h3.3v21.3H98.6z M105.2,57.7V36.4h3.3v21.3H105.2z M110.1,33.1H62.5v-3.7l24.6-7.7l24.6,7.7v3.7H110.1z
				 M110.1,33.1"/>
			<rect x="42.8" y="75.7" class="st2" width="3.3" height="3.3"/>
			<rect x="85.5" y="26.5" class="st3" width="3.3" height="3.3"/>
			<path class="st3" d="M31.4,39.6L31.4,39.6c0.9,0,1.6,0.7,1.6,1.6v0c0,0.9-0.7,1.6-1.6,1.6h0c-0.9,0-1.6-0.7-1.6-1.6v0
				C29.7,40.4,30.5,39.6,31.4,39.6z"/>
			<path class="st3" d="M37.9,39.6L37.9,39.6c0.9,0,1.6,0.7,1.6,1.6v0c0,0.9-0.7,1.6-1.6,1.6h0c-0.9,0-1.6-0.7-1.6-1.6v0
				C36.3,40.4,37,39.6,37.9,39.6z"/>
			<path class="st3" d="M44.5,39.6L44.5,39.6c0.9,0,1.6,0.7,1.6,1.6v0c0,0.9-0.7,1.6-1.6,1.6h0c-0.9,0-1.6-0.7-1.6-1.6v0
				C42.8,40.4,43.6,39.6,44.5,39.6z"/>
			<path class="st3" d="M51,39.6L51,39.6c0.9,0,1.6,0.7,1.6,1.6v0c0,0.9-0.7,1.6-1.6,1.6h0c-0.9,0-1.6-0.7-1.6-1.6v0
				C49.4,40.4,50.1,39.6,51,39.6z"/>
			<path class="st3" d="M57.6,39.6L57.6,39.6c0.9,0,1.6,0.7,1.6,1.6v0c0,0.9-0.7,1.6-1.6,1.6h0c-0.9,0-1.6-0.7-1.6-1.6v0
				C56,40.4,56.7,39.6,57.6,39.6z"/>
			<path class="st3" d="M24.8,39.6L24.8,39.6c0.9,0,1.6,0.7,1.6,1.6v0c0,0.9-0.7,1.6-1.6,1.6h0c-0.9,0-1.6-0.7-1.6-1.6v0
				C23.2,40.4,23.9,39.6,24.8,39.6z"/>
			<path class="st3" d="M24.8,46.2L24.8,46.2c0.9,0,1.6,0.7,1.6,1.6v0c0,0.9-0.7,1.6-1.6,1.6h0c-0.9,0-1.6-0.7-1.6-1.6v0
				C23.2,46.9,23.9,46.2,24.8,46.2z"/>
			<path class="st3" d="M24.8,52.8L24.8,52.8c0.9,0,1.6,0.7,1.6,1.6v0c0,0.9-0.7,1.6-1.6,1.6h0c-0.9,0-1.6-0.7-1.6-1.6v0
				C23.2,53.5,23.9,52.8,24.8,52.8z"/>
			<path class="st3" d="M24.8,59.3L24.8,59.3c0.9,0,1.6,0.7,1.6,1.6v0c0,0.9-0.7,1.6-1.6,1.6h0c-0.9,0-1.6-0.7-1.6-1.6v0
				C23.2,60.1,23.9,59.3,24.8,59.3z"/>
			<path class="st3" d="M24.8,65.9L24.8,65.9c0.9,0,1.6,0.7,1.6,1.6v0c0,0.9-0.7,1.6-1.6,1.6h0c-0.9,0-1.6-0.7-1.6-1.6v0
				C23.2,66.6,23.9,65.9,24.8,65.9z"/>
			<path class="st2" d="M100.2,97L100.2,97c0.9,0,1.6,0.7,1.6,1.6v0c0,0.9-0.7,1.6-1.6,1.6l0,0c-0.9,0-1.6-0.7-1.6-1.6v0
				C98.6,97.8,99.3,97,100.2,97z"/>
			<path class="st2" d="M93.7,97L93.7,97c0.9,0,1.6,0.7,1.6,1.6v0c0,0.9-0.7,1.6-1.6,1.6h0c-0.9,0-1.6-0.7-1.6-1.6v0
				C92,97.8,92.8,97,93.7,97z"/>
			<path class="st2" d="M87.1,97L87.1,97c0.9,0,1.6,0.7,1.6,1.6v0c0,0.9-0.7,1.6-1.6,1.6h0c-0.9,0-1.6-0.7-1.6-1.6v0
				C85.5,97.8,86.2,97,87.1,97z"/>
			<path class="st2" d="M80.6,97L80.6,97c0.9,0,1.6,0.7,1.6,1.6v0c0,0.9-0.7,1.6-1.6,1.6h0c-0.9,0-1.6-0.7-1.6-1.6v0
				C78.9,97.8,79.7,97,80.6,97z"/>
			<path class="st2" d="M74,97L74,97c0.9,0,1.6,0.7,1.6,1.6v0c0,0.9-0.7,1.6-1.6,1.6h0c-0.9,0-1.6-0.7-1.6-1.6v0
				C72.4,97.8,73.1,97,74,97z"/>
			<path class="st2" d="M106.8,97L106.8,97c0.9,0,1.6,0.7,1.6,1.6v0c0,0.9-0.7,1.6-1.6,1.6h0c-0.9,0-1.6-0.7-1.6-1.6v0
				C105.2,97.8,105.9,97,106.8,97z"/>
			<path class="st2" d="M106.8,90.5L106.8,90.5c0.9,0,1.6,0.7,1.6,1.6v0c0,0.9-0.7,1.6-1.6,1.6h0c-0.9,0-1.6-0.7-1.6-1.6v0
				C105.2,91.2,105.9,90.5,106.8,90.5z"/>
			<path class="st2" d="M106.8,83.9L106.8,83.9c0.9,0,1.6,0.7,1.6,1.6v0c0,0.9-0.7,1.6-1.6,1.6h0c-0.9,0-1.6-0.7-1.6-1.6v0
				C105.2,84.7,105.9,83.9,106.8,83.9z"/>
			<path class="st2" d="M106.8,77.4L106.8,77.4c0.9,0,1.6,0.7,1.6,1.6v0c0,0.9-0.7,1.6-1.6,1.6h0c-0.9,0-1.6-0.7-1.6-1.6v0
				C105.2,78.1,105.9,77.4,106.8,77.4z"/>
			<path class="st2" d="M106.8,70.8L106.8,70.8c0.9,0,1.6,0.7,1.6,1.6v0c0,0.9-0.7,1.6-1.6,1.6h0c-0.9,0-1.6-0.7-1.6-1.6v0
				C105.2,71.5,105.9,70.8,106.8,70.8z"/>
		</g>
	</g>
</g>
<g id="Foreign_Exchange" class="st0">
	<g class="st1">
		<path class="st3" d="M56.8,80.7h40c0.1,1,0.5,3.3,2.4,5.5c2.5,2.9,5.9,3.5,6.7,3.6c0,3.5,0,7,0,10.4c-0.6,0-3.8,0.1-6.4,2.6
			c-2.7,2.6-2.7,5.9-2.7,6.5c-13,0-26,0-39,0c-0.1-0.8-0.5-3.7-3-6.2c-2.4-2.4-5.2-2.8-6.1-2.9c0-3.7,0-7.3,0-11
			c3,0.5,6-0.8,7.4-3.1C57.5,83.8,56.9,81.2,56.8,80.7z"/>
		<path class="st2" d="M89.8,25.1c-0.9,0-8.2,0-8.2,0c0,0.6,0,3.3,2.1,5.5c2.3,2.6,5.5,2.6,6,2.6C89.8,30.5,89.8,27.8,89.8,25.1z"/>
		<path class="st2" d="M21.2,25.1c0.9,0,8.2,0,8.2,0c0,0.6,0,3.3-2.1,5.5c-2.3,2.6-5.5,2.6-6,2.6C21.3,30.5,21.3,27.8,21.2,25.1z"/>
		<path class="st2" d="M89.8,65c-0.9,0-8.2,0-8.2,0c0-0.6,0-3.3,2.1-5.5c2.3-2.6,5.5-2.6,6-2.6C89.8,59.6,89.8,62.3,89.8,65z"/>
		<path class="st2" d="M21.2,65c0.9,0,8.2,0,8.2,0c0-0.6,0-3.3-2.1-5.5c-2.3-2.6-5.5-2.6-6-2.6C21.3,59.6,21.3,62.3,21.2,65z"/>
		<g>
			<path d="M111.5,73H42.8c-0.9,0-1.6,0.7-1.6,1.6v18.7h-1.6c-6,0-10.9-4.9-10.9-10.9V79l3.5,4.3l2.4-2l-6.2-7.8
				c-0.6-0.7-1.8-0.7-2.4,0l-6.2,7.8l2.4,2l3.5-4.3v3.4c0,7.7,6.3,14,14,14h1.6v18.7c0,0.9,0.7,1.6,1.6,1.6h68.7
				c0.9,0,1.6-0.7,1.6-1.6V74.6C113.1,73.7,112.4,73,111.5,73L111.5,73z M109.9,113.6H44.4V76.1h65.6V113.6z M109.9,113.6"/>
			<path d="M110.3,56.4l-3.5,4.3v-4.9c0-7.7-6.3-14-14-14h-1.6V24.6c0-0.9-0.7-1.6-1.6-1.6H21c-0.9,0-1.6,0.7-1.6,1.6v40.6
				c0,0.9,0.7,1.6,1.6,1.6h68.7c0.9,0,1.6-0.7,1.6-1.6V44.9h1.6c6,0,10.9,4.9,10.9,10.9v4.9l-3.5-4.3l-2.4,2l6.2,7.8
				c0.3,0.4,0.7,0.6,1.2,0.6c0.5,0,0.9-0.2,1.2-0.6l6.2-7.8L110.3,56.4z M22.5,26.2h4.7c0,2.6-2.1,4.7-4.7,4.7V26.2z M22.5,63.7V59
				c2.6,0,4.7,2.1,4.7,4.7H22.5z M88.1,63.7h-4.7c0-2.6,2.1-4.7,4.7-4.7V63.7z M88.1,55.8c-4.3,0-7.8,3.5-7.8,7.8H30.3
				c0-4.3-3.5-7.8-7.8-7.8V34c4.3,0,7.8-3.5,7.8-7.8h49.9c0,4.3,3.5,7.8,7.8,7.8V55.8z M88.1,30.9c-2.6,0-4.7-2.1-4.7-4.7h4.7V30.9z
				 M88.1,30.9"/>
			<path class="st5" d="M63.1,39.8h-3.5c0-0.1,0-0.1,0-0.2c-0.1-0.6-0.4-1.1-0.7-1.5h4.3c0.7,0,1.2-0.5,1.2-1.2
				c0-0.7-0.5-1.2-1.2-1.2H50.4c-0.7,0-1.2,0.5-1.2,1.2c0,0.7,0.5,1.2,1.2,1.2H54c0,0,2.3,0,3,1.7h-6.5c-0.7,0-1.2,0.5-1.2,1.2
				s0.5,1.2,1.2,1.2h6.7c-0.1,0.4-0.3,0.9-0.6,1.3c-1,1.1-2.7,1.7-5,1.8c-0.4-0.2-0.9-0.1-1.2,0.2c0,0,0,0.1-0.1,0.1
				c-0.3,0.2-0.4,0.5-0.4,0.9c0,0.5,0.3,0.9,0.7,1.1l7.1,8.3c0.2,0.3,0.5,0.5,0.9,0.5c0.2,0,0.5,0,0.8-0.2l0,0
				c0.3-0.3,0.4-0.6,0.5-0.9c0-0.3-0.1-0.6-0.3-0.9l-5.9-6.9c2.1-0.4,3.7-1.2,4.8-2.5c0.8-0.9,1.1-2,1.2-2.9h3.4
				c0.7,0,1.2-0.5,1.2-1.2S63.8,39.8,63.1,39.8z"/>
			<path d="M80.3,88.6h3.1c0.9,0,1.6-0.7,1.6-1.6l0,0c0-0.9-0.7-1.6-1.6-1.6h-3.1c-3.2,0-5.9,1.9-7.1,4.7l-2.2,0
				c-0.9,0-1.6,0.7-1.6,1.6v0c0,0.9,0.7,1.6,1.6,1.6h0c0.9,0,1.6,0.7,1.6,1.6v0c0,0.9-0.7,1.6-1.6,1.6h0c-0.9,0-1.6,0.7-1.6,1.6v0
				c0,0.9,0.7,1.6,1.6,1.6l2.2,0c1.2,2.8,4,4.7,7.1,4.7h3.1c0.9,0,1.6-0.7,1.6-1.6v0c0-0.9-0.7-1.6-1.6-1.6h-3.1
				c-1.4,0-2.6-0.6-3.5-1.6h3.5c0.9,0,1.6-0.7,1.6-1.6v0c0-0.9-0.7-1.6-1.6-1.6h-3.1c-0.9,0-1.6-0.7-1.6-1.6v0
				c0-0.9,0.7-1.6,1.6-1.6h3.1c0.9,0,1.6-0.7,1.6-1.6v0c0-0.9-0.7-1.6-1.6-1.6h-3.5C77.7,89.2,78.9,88.6,80.3,88.6L80.3,88.6z
				 M80.3,88.6"/>
			<path d="M105.3,87.1c-3.4,0-6.2-2.8-6.2-6.2c0-0.9-0.7-1.6-1.6-1.6H56.9c-0.9,0-1.6,0.7-1.6,1.6c0,3.4-2.8,6.2-6.2,6.2
				c-0.9,0-1.6,0.7-1.6,1.6v12.5c0,0.9,0.7,1.6,1.6,1.6c3.4,0,6.2,2.8,6.2,6.2c0,0.9,0.7,1.6,1.6,1.6h40.6c0.9,0,1.6-0.7,1.6-1.6
				c0-3.4,2.8-6.2,6.2-6.2c0.9,0,1.6-0.7,1.6-1.6V88.6C106.8,87.8,106.1,87.1,105.3,87.1L105.3,87.1z M103.7,99.7
				c-3.9,0.7-7,3.8-7.7,7.7H58.3c-0.7-3.9-3.8-7-7.7-7.7v-9.6c3.9-0.7,7-3.8,7.7-7.7H96c0.7,3.9,3.8,7,7.7,7.7V99.7z M103.7,99.7"/>
		</g>
	</g>
</g>
<g id="E-Tax" class="st0">
	<g class="st1">
		<rect x="24.6" y="29.3" class="st2" width="58.8" height="11.2"/>
		<path class="st3" d="M104.2,105.7H42.5c-4,0-7.3-3.3-7.3-7.3v-2h76.3v2C111.5,102.4,108.2,105.7,104.2,105.7z"/>
		<g>
			<path d="M33.3,99.3c0,4.4,3.5,7.9,7.9,7.9h17.9v6.3h-4.7c-0.9,0-1.6,0.7-1.6,1.6l0,0c0,0.9,0.7,1.6,1.6,1.6h34.8
				c0.9,0,1.6-0.7,1.6-1.6l0,0c0-0.9-0.7-1.6-1.6-1.6h-4.7v-6.3h21.1c4.4,0,7.9-3.5,7.9-7.9v-4.7H33.3V99.3z M81.3,113.6h-19v-6.3
				h19V113.6z M36.5,97.8h73.8v1.6c0,2.6-2.1,4.7-4.7,4.7H41.2c-2.6,0-4.7-2.1-4.7-4.7V97.8z"/>
			<path d="M34.9,84.5c-0.9,0-1.6,0.7-1.6,1.6v11.5c0,0.9,0.7,1.6,1.6,1.6c0.9,0,1.6-0.7,1.6-1.6V86.1
				C36.5,85.2,35.8,84.5,34.9,84.5L34.9,84.5z"/>
			<path d="M105.5,48.2H89.2c-0.9,0-1.6,0.7-1.6,1.6v0c0,0.9,0.7,1.6,1.6,1.6h16.3c2.6,0,4.7,2.1,4.7,4.7v41.4
				c0,0.9,0.7,1.6,1.6,1.6h0c0.9,0,1.6-0.7,1.6-1.6V56.1C113.4,51.8,109.9,48.2,105.5,48.2z"/>
			<path d="M31.2,34.4L31.2,34.4c0.9,0,1.6,0.7,1.6,1.6v0c0,0.9-0.7,1.6-1.6,1.6h0c-0.9,0-1.6-0.7-1.6-1.6v0
				C29.6,35.1,30.4,34.4,31.2,34.4z"/>
			<path d="M37.5,34.4L37.5,34.4c0.9,0,1.6,0.7,1.6,1.6v0c0,0.9-0.7,1.6-1.6,1.6h0c-0.9,0-1.6-0.7-1.6-1.6v0
				C36,35.1,36.7,34.4,37.5,34.4z"/>
			<path d="M43.9,34.4L43.9,34.4c0.9,0,1.6,0.7,1.6,1.6v0c0,0.9-0.7,1.6-1.6,1.6h0c-0.9,0-1.6-0.7-1.6-1.6v0
				C42.3,35.1,43,34.4,43.9,34.4z"/>
			<path d="M82.9,27.8h-58c-0.9,0-1.6,0.7-1.6,1.6v14v18.9v17.7c0,0.9,0.7,1.6,1.6,1.6h58c0.9,0,1.6-0.7,1.6-1.6V62.2V43.3v-14
				C84.4,28.5,83.7,27.8,82.9,27.8z M81.9,77.2c0,0.9-0.7,1.6-1.6,1.6H27.5c-0.9,0-1.6-0.7-1.6-1.6V62.3V43V32
				c0-0.9,0.7-1.6,1.6-1.6h52.8c0.9,0,1.6,0.7,1.6,1.6v11v19.3V77.2z"/>
			<path d="M71.4,69.7H34.9c-0.6,0-1.1,0.5-1.1,1.1c0,0.6,0.5,1.1,1.1,1.1h36.5c0.6,0,1.1-0.5,1.1-1.1C72.5,70.1,72,69.7,71.4,69.7
				L71.4,69.7z M71.4,69.7"/>
			<path d="M71.6,62.7H70c-0.6,0-1.1,0.5-1.1,1.1c0,0.6,0.5,1.1,1.1,1.1h1.6c0.6,0,1.1-0.5,1.1-1.1C72.7,63.1,72.2,62.7,71.6,62.7
				L71.6,62.7z M71.6,62.7"/>
			<path d="M63,62.7H34.8c-0.6,0-1.1,0.5-1.1,1.1c0,0.6,0.5,1.1,1.1,1.1H63c0.6,0,1.1-0.5,1.1-1.1C64.1,63.1,63.6,62.7,63,62.7
				L63,62.7z M63,62.7"/>
			<path d="M42.9,46.3H36c-0.5,0-0.8,0.5-0.8,1c0,0.6,0.3,1,0.8,1h2.4V58c0,0.5,0.4,0.8,1.1,0.8c0.5,0,1.1-0.3,1.1-0.8v-9.8h2.4
				c0.5,0,0.8-0.4,0.8-1C43.7,46.8,43.5,46.3,42.9,46.3L42.9,46.3z M42.9,46.3"/>
			<path d="M57.1,57.7l-3.3-10.8c-0.1-0.4-0.7-0.7-1.3-0.7c-0.6,0-1.1,0.3-1.3,0.7l-3.3,10.8c0,0.1,0,0.2,0,0.2
				c0,0.5,0.7,0.9,1.3,0.9c0.5,0,0.7-0.3,0.8-0.5l0.6-2.2h3.8l0.6,2.2c0.1,0.3,0.4,0.5,0.8,0.5c0.6,0,1.3-0.4,1.3-0.9
				C57.2,57.8,57.2,57.7,57.1,57.7L57.1,57.7z M51.1,54.3l1.4-4.9l1.4,4.9H51.1z M51.1,54.3"/>
			<path d="M70.9,57.4l-2.8-4.8l2.7-4.8c0.1-0.2,0.2-0.4,0.2-0.5c0-0.6-0.7-1-1.3-1c-0.4,0-0.7,0.2-0.8,0.6l-2.2,4l-2.1-4
				c-0.3-0.5-0.6-0.6-0.8-0.6c-0.6,0-1.3,0.4-1.3,1c0,0.2,0.1,0.3,0.2,0.5l2.7,4.8l-2.8,4.9c-0.1,0.2-0.1,0.3-0.1,0.4
				c0,0.6,0.7,1.1,1.3,1.1c0.3,0,0.5-0.2,0.7-0.5l2.3-4.1l2.3,4.1c0.1,0.2,0.4,0.5,0.7,0.5c0.6,0,1.3-0.5,1.3-1.1
				C71,57.7,71,57.5,70.9,57.4L70.9,57.4z M70.9,57.4"/>
		</g>
	</g>
</g>
<g id="Lockers" class="st0">
	<g class="st1">
		<rect x="32" y="109.4" class="st3" width="9.4" height="5.1"/>
		<rect x="90.6" y="109.4" class="st3" width="9.4" height="5.1"/>
		<rect x="90.6" y="55.4" class="st2" width="4" height="24.5"/>
		<circle class="st2" cx="66.1" cy="67.5" r="7.7"/>
		<path class="st3" d="M66.1,47.9c-10.8,0-19.6,8.8-19.6,19.6s8.8,19.6,19.6,19.6s19.6-8.8,19.6-19.6S76.9,47.9,66.1,47.9z M66.1,82
			c-8,0-14.6-6.5-14.6-14.6s6.5-14.6,14.6-14.6s14.6,6.5,14.6,14.6S74.1,82,66.1,82z"/>
		<g>
			<g>
				<defs>
					<rect id="SVGID_3_" x="23.2" y="24.4" width="86" height="92.3"/>
				</defs>
				<clipPath id="SVGID_4_">
					<use xlink:href="#SVGID_3_"  style="overflow:visible;"/>
				</clipPath>
				<path class="st6" d="M92.5,53.4c-1.9,0-3.4,1.5-3.4,3.4v21.3c0,1.9,1.5,3.4,3.4,3.4c1.9,0,3.4-1.5,3.4-3.4V56.8
					C95.9,54.9,94.4,53.4,92.5,53.4L92.5,53.4z M93.3,78.1c0,0.4-0.3,0.7-0.7,0.7c-0.4,0-0.7-0.3-0.7-0.7V56.8
					c0-0.4,0.3-0.7,0.7-0.7c0.4,0,0.7,0.3,0.7,0.7V78.1z M93.3,78.1"/>
				<path class="st6" d="M104.6,24.5H28.1c-2.6,0-4.7,2.1-4.7,4.7v63.2c0,0.7,0.6,1.3,1.3,1.3c0.7,0,1.3-0.6,1.3-1.3V29.2
					c0-1.1,0.9-2.1,2.1-2.1h76.4c1.1,0,2.1,0.9,2.1,2.1v76.4c0,1.1-0.9,2.1-2.1,2.1H28.1c-1.1,0-2.1-0.9-2.1-2.1v-4.8
					c0-0.7-0.6-1.3-1.3-1.3c-0.7,0-1.3,0.6-1.3,1.3v4.8c0,2.6,2.1,4.7,4.7,4.7h2.6l0.6,3.5c0.2,1.5,1.5,2.6,3,2.6h5.3
					c1.5,0,2.8-1.1,3-2.6l0.6-3.5h46.5l0.6,3.5c0.2,1.5,1.5,2.6,3,2.6h5.3c1.5,0,2.8-1.1,3-2.6l0.6-3.5h2.6c2.6,0,4.7-2.1,4.7-4.7
					V29.2C109.3,26.6,107.2,24.5,104.6,24.5L104.6,24.5z M39.9,113.5C39.9,113.5,39.9,113.5,39.9,113.5c0,0.2-0.2,0.4-0.4,0.4h-5.3
					c-0.2,0-0.3-0.1-0.4-0.3c0,0,0,0,0-0.1l-0.5-3.1h7.1L39.9,113.5z M98.8,113.5C98.8,113.5,98.8,113.5,98.8,113.5
					c0,0.2-0.2,0.4-0.4,0.4h-5.3c-0.2,0-0.3-0.1-0.4-0.3c0,0,0,0,0-0.1l-0.5-3.1h7.1L98.8,113.5z M98.8,113.5"/>
			</g>
			<path d="M66.3,47c-11.2,0-20.4,9.1-20.4,20.4c0,11.2,9.1,20.4,20.4,20.4c11.2,0,20.4-9.1,20.4-20.4C86.7,56.2,77.6,47,66.3,47
				L66.3,47z M66.3,85.2c-9.8,0-17.7-8-17.7-17.7c0-9.8,8-17.7,17.7-17.7c9.8,0,17.7,8,17.7,17.7C84.1,77.2,76.1,85.2,66.3,85.2
				L66.3,85.2z M66.3,85.2"/>
			<path d="M99.7,41.6c0.7,0,1.3-0.6,1.3-1.3v-3.4c0-2.3-1.9-4.2-4.2-4.2H35.8c-2.3,0-4.2,1.9-4.2,4.2v6.9H31c-1.3,0-2.3,1-2.3,2.3
				v5.6c0,1.3,1,2.3,2.3,2.3h0.5v26.8H31c-1.3,0-2.3,1-2.3,2.3v5.6c0,1.3,1,2.3,2.3,2.3h0.5v6.9c0,2.3,1.9,4.2,4.2,4.2h61.1
				c2.3,0,4.2-1.9,4.2-4.2V48.6c0-0.7-0.6-1.3-1.3-1.3c-0.7,0-1.3,0.6-1.3,1.3v49.3c0,0.9-0.7,1.6-1.6,1.6H35.8
				c-0.9,0-1.6-0.7-1.6-1.6V91h0.7c1.3,0,2.3-1,2.3-2.3v-5.6c0-1.3-1-2.3-2.3-2.3h-0.7V54h0.7c1.3,0,2.3-1,2.3-2.3v-5.6
				c0-1.3-1-2.3-2.3-2.3h-0.7v-6.9c0-0.9,0.7-1.6,1.6-1.6h61.1c0.9,0,1.6,0.7,1.6,1.6v3.4C98.4,41,99,41.6,99.7,41.6L99.7,41.6z
				 M34.5,83.5v4.9h-3.1v-4.9H34.5z M34.5,46.4v4.9h-3.1v-4.9h1.5c0,0,0,0,0,0H34.5z M34.5,46.4"/>
			<path d="M66.3,52.2c-8.4,0-15.2,6.8-15.2,15.2c0,8.4,6.8,15.2,15.2,15.2c8.4,0,15.2-6.8,15.2-15.2C81.5,59,74.7,52.2,66.3,52.2
				L66.3,52.2z M78.8,66.1h-3.4c-0.2-1.5-0.8-3-1.7-4.2l2.4-2.4C77.6,61.3,78.6,63.6,78.8,66.1L78.8,66.1z M67.6,54.9
				c2.5,0.3,4.7,1.2,6.6,2.7l-2.4,2.4c-1.2-0.9-2.6-1.5-4.2-1.7V54.9z M65,54.9v3.4c-1.5,0.2-3,0.8-4.2,1.7l-2.4-2.4
				C60.3,56.2,62.5,55.2,65,54.9L65,54.9z M56.6,59.5l2.4,2.4c-0.9,1.2-1.5,2.6-1.7,4.2h-3.4C54.1,63.6,55.1,61.3,56.6,59.5
				L56.6,59.5z M53.8,68.7h3.4c0.2,1.6,0.8,3,1.7,4.2l-2.4,2.4C55.1,73.5,54.1,71.2,53.8,68.7L53.8,68.7z M65,79.9
				c-2.5-0.3-4.7-1.2-6.6-2.7l2.4-2.4c1.2,0.9,2.6,1.5,4.2,1.7V79.9z M59.8,67.4c0-3.6,2.9-6.6,6.6-6.6c3.6,0,6.6,2.9,6.6,6.6
				c0,3.6-2.9,6.6-6.6,6.6C62.7,74,59.8,71,59.8,67.4L59.8,67.4z M67.6,79.9v-3.4c1.5-0.2,3-0.8,4.2-1.7l2.4,2.4
				C72.4,78.7,70.1,79.7,67.6,79.9L67.6,79.9z M76.1,75.3l-2.4-2.4c0.9-1.2,1.5-2.6,1.7-4.2h3.4C78.6,71.2,77.6,73.5,76.1,75.3
				L76.1,75.3z M76.1,75.3"/>
		</g>
	</g>
</g>
<g id="IMPS" class="st0">
	<g class="st1">
		<path class="st2" d="M109.1,45.6H59.2L59,85.4h50c2.2,0,3.9-1.8,3.9-3.9v-32C113,47.3,111.2,45.6,109.1,45.6z M108.9,75.1l-6,6.2
			H59.2V50.1h44.2l5.5,5.5V75.1z"/>
		<rect x="36.8" y="29.7" class="st3" width="44.9" height="6.9"/>
		<circle class="st2" cx="59" cy="108.2" r="3.3"/>
		<g>
			<path d="M87.2,89c-0.7,0-1.3,0.6-1.3,1.3v20.9c0,1.5-1.3,2.8-2.8,2.8h-48c-1.5,0-2.8-1.3-2.8-2.8V28.4c0-1.5,1.3-2.8,2.8-2.8h48
				c1.5,0,2.8,1.3,2.8,2.8v13c0,0.7,0.6,1.3,1.3,1.3c0.7,0,1.3-0.6,1.3-1.3v-13c0-3-2.5-5.5-5.5-5.5h-48c-3,0-5.5,2.5-5.5,5.5v82.9
				c0,3,2.5,5.5,5.5,5.5h48c3,0,5.5-2.5,5.5-5.5V90.3C88.5,89.6,87.9,89,87.2,89L87.2,89z M87.2,89"/>
			<path d="M59,103.3c-2.7,0-4.9,2.2-4.9,4.9c0,2.7,2.2,4.9,4.9,4.9c2.7,0,4.9-2.2,4.9-4.9C63.9,105.5,61.7,103.3,59,103.3L59,103.3
				z M59,110.5c-1.2,0-2.2-1-2.2-2.2c0-1.2,1-2.2,2.2-2.2c1.2,0,2.2,1,2.2,2.2C61.3,109.5,60.3,110.5,59,110.5L59,110.5z M59,110.5"
				/>
			<path d="M81.6,89c-0.7,0-1.3,0.6-1.3,1.3v8.9c0,0.2-0.2,0.4-0.4,0.4H38.2c-0.2,0-0.4-0.2-0.4-0.4V38.1h42.5v3.3
				c0,0.7,0.6,1.3,1.3,1.3c0.7,0,1.3-0.6,1.3-1.3V31.2c0-1.7-1.4-3-3-3H38.2c-1.7,0-3.1,1.4-3.1,3v68.1c0,1.7,1.4,3,3.1,3h41.8
				c1.7,0,3-1.4,3-3v-8.9C83,89.6,82.4,89,81.6,89L81.6,89z M37.8,31.2c0-0.2,0.1-0.3,0.3-0.4c0,0,0,0,0.1,0h41.8c0,0,0.1,0,0.1,0
				c0.2,0,0.3,0.2,0.3,0.4v4.2H37.8V31.2z M37.8,31.2"/>
			<path d="M110.5,44.3H60.4v-2.8c0-0.7-0.6-1.3-1.3-1.3c-0.7,0-1.3,0.6-1.3,2.1v47.5c0,0,0.6,0.6,1.3,0.6c0.7,0,1.3-0.6,1.3-1.3
				v-1.9h50.1c2.4,0,4.4-2,4.4-4.4v-34C114.9,46.3,112.9,44.3,110.5,44.3L110.5,44.3z M60.4,51.5H103c1.1,2.4,2.9,4.3,5.3,5.4v17.8
				c-2.4,1.1-4.2,3-5.3,5.4H60.4V51.5z M112.2,82.7c0,1-0.8,1.8-1.8,1.8H60.4v-1.8h42.8c1,0,1.8-0.6,2.2-1.4
				c0.8-1.9,2.3-3.4,4.2-4.2c0.9-0.4,1.4-1.2,1.4-2.2V56.6c0-0.9-0.6-1.8-1.4-2.2c-1.9-0.8-3.4-2.3-4.2-4.2
				c-0.4-0.9-1.2-1.4-2.2-1.4H60.4V47h50.1c1,0,1.8,0.8,1.8,1.8V82.7z M112.2,82.7"/>
			<path class="st5" d="M81.8,61.1h-3.3c0-0.1,0-0.1,0-0.2c-0.1-0.6-0.4-1-0.6-1.4h4c0.7,0,1.2-0.5,1.2-1.2c0-0.7-0.5-1.2-1.2-1.2
				H69.9c-0.7,0-1.2,0.5-1.2,1.2c0,0.7,0.5,1.2,1.2,1.2h3.3c0,0,2.2,0,2.8,1.6h-6.1c-0.7,0-1.2,0.5-1.2,1.2c0,0.7,0.5,1.2,1.2,1.2
				h6.3c-0.1,0.4-0.3,0.8-0.5,1.2c-0.9,1.1-2.5,1.6-4.7,1.7c-0.4-0.2-0.8-0.1-1.1,0.2c0,0,0,0.1-0.1,0.1c-0.2,0.2-0.4,0.5-0.4,0.9
				c0,0.5,0.3,0.8,0.6,1l6.7,7.8c0.2,0.3,0.5,0.5,0.9,0.5c0.2,0,0.5,0,0.8-0.2l0,0c0.2-0.2,0.4-0.5,0.4-0.8c0-0.3-0.1-0.6-0.3-0.8
				l-5.5-6.5c2-0.3,3.5-1.1,4.5-2.3c0.7-0.9,1-1.8,1.2-2.7h3.2c0.7,0,1.2-0.5,1.2-1.2C83,61.6,82.5,61.1,81.8,61.1z"/>
		</g>
	</g>
</g>
<g id="EzeeWill" class="st0">
	<g class="st1">
		<rect x="41" y="76.3" class="st2" width="23" height="10"/>
		<path class="st3" d="M88.8,114.6H31.4c-3.8,0-6.9-3.1-6.9-6.9V104h64.2V114.6z"/>
		<g id="EzeeWill_1_">
			<g>
				<g>
					<path d="M48.4,45.8L48.4,45.8c1,0,1.8,0.7,1.8,1.8l0,0c0,1-0.7,1.8-1.8,1.8l0,0c-1,0-1.8-0.7-1.8-1.8l0,0
						C46.5,46.5,47.3,45.8,48.4,45.8z"/>
				</g>
			</g>
			<g>
				<g>
					<path d="M55.3,45.8h35c1,0,1.8,0.7,1.8,1.8l0,0c0,1-0.7,1.8-1.8,1.8h-35c-1,0-1.8-0.7-1.8-1.8l0,0
						C53.5,46.5,54.4,45.8,55.3,45.8z"/>
				</g>
			</g>
			<g>
				<g>
					<path d="M41.2,52.8h49c1,0,1.8,0.7,1.8,1.8l0,0c0,1-0.7,1.8-1.8,1.8h-49c-1,0-1.8-0.7-1.8-1.8l0,0
						C39.6,53.5,40.3,52.8,41.2,52.8z"/>
				</g>
			</g>
			<g>
				<g>
					<path d="M41.2,59.8h42c1,0,1.8,0.7,1.8,1.8l0,0c0,1-0.7,1.8-1.8,1.8h-42c-1,0-1.8-0.7-1.8-1.8l0,0
						C39.6,60.5,40.3,59.8,41.2,59.8z"/>
				</g>
			</g>
			<g>
				<g>
					<path d="M39.6,29.7h13.8c1,0,1.8,0.7,1.8,1.8l0,0c0,1-0.7,1.8-1.8,1.8H39.6c-1,0-1.8-0.7-1.8-1.8l0,0
						C37.7,30.6,38.6,29.7,39.6,29.7z"/>
				</g>
			</g>
			<g>
				<g>
					<path d="M99,18.6H32.6c-1,0-1.8,0.7-1.8,1.8v82.2h-8.8c-1,0-1.8,0.7-1.8,1.8v5.3c0,3.9,3.1,7,7,7h66.4c3.9,0,7-3.1,7-7V20.5
						C100.8,19.3,100,18.6,99,18.6z M27.3,113c-1.9,0-3.5-1.6-3.5-3.5V106h62.9v3.5c0,1.2,0.4,2.4,1,3.5H27.3z M97.3,109.5
						c0,1.9-1.6,3.5-3.5,3.5c-1.9,0-3.5-1.6-3.5-3.5v-5.3c0-1-0.7-1.8-1.8-1.8H34.2V22.1h62.9v87.4H97.3z"/>
				</g>
			</g>
		</g>
		<g>
			<path d="M64.4,88H39.8c-0.5,0-1-0.4-1-1V75.4c0-0.5,0.4-1,1-1h24.6c0.5,0,1,0.4,1,1v11.7C65.4,87.6,64.9,88,64.4,88z M42.8,85
				h18.6c0.5,0,1-0.4,1-1v-5.7c0-0.5-0.4-1-1-1H42.8c-0.5,0-1,0.4-1,1v5.7C41.8,84.6,42.3,85,42.8,85z"/>
		</g>
	</g>
</g>
</svg>
